<svg width="24" height="24" viewBox="0 0 24 24" fill="none" xmlns="http://www.w3.org/2000/svg">
    <path
        d="M16.7961 14.5083C16.8445 14.5567 16.883 14.6142 16.9092 14.6775C16.9354 14.7408 16.9489 14.8087 16.9489 14.8772C16.9489 14.9457 16.9354 15.0136 16.9092 15.0769C16.883 15.1402 16.8445 15.1977 16.7961 15.2461L12.3691 19.6731C12.345 19.6972 12.3186 19.7188 12.2902 19.7378C12.2829 19.7426 12.2748 19.7456 12.2675 19.7502C12.2461 19.7637 12.2238 19.7756 12.2006 19.7858C12.19 19.7903 12.1784 19.7923 12.1676 19.7961C12.1466 19.804 12.1251 19.8105 12.1032 19.8157C12.0351 19.8295 11.9649 19.8295 11.8968 19.8157C11.8749 19.8105 11.8534 19.804 11.8324 19.7961C11.8214 19.7923 11.8101 19.7903 11.7994 19.7858C11.7762 19.7756 11.7539 19.7637 11.7325 19.7502C11.7252 19.7457 11.7171 19.7426 11.7098 19.7378C11.6815 19.7188 11.6551 19.6972 11.631 19.6731L7.20404 15.2461C7.108 15.1479 7.05455 15.0158 7.05531 14.8784C7.05607 14.7411 7.11096 14.6096 7.20808 14.5124C7.30521 14.4153 7.43672 14.3604 7.57408 14.3596C7.71144 14.3588 7.84356 14.4122 7.94178 14.5083L11.4783 18.0447V8.86957C11.4783 8.73119 11.5332 8.59848 11.6311 8.50064C11.7289 8.40279 11.8616 8.34783 12 8.34783C12.1384 8.34783 12.2711 8.40279 12.3689 8.50064C12.4668 8.59848 12.5217 8.73119 12.5217 8.86957V18.0447L16.0582 14.5083C16.1067 14.4598 16.1642 14.4214 16.2275 14.3952C16.2908 14.3689 16.3586 14.3554 16.4272 14.3554C16.4957 14.3554 16.5635 14.3689 16.6268 14.3952C16.6901 14.4214 16.7476 14.4598 16.7961 14.5083V14.5083ZM24 4.69565V22.4348C23.9996 22.8498 23.8345 23.2476 23.5411 23.5411C23.2476 23.8345 22.8498 23.9996 22.4348 24H1.56522C1.15023 23.9996 0.752375 23.8345 0.458937 23.5411C0.165499 23.2476 0.000448837 22.8498 0 22.4348V4.69565C0.000257609 4.65741 0.00471935 4.61931 0.0133045 4.58204C0.0155219 4.57187 0.0195653 4.56248 0.0224349 4.55243C0.0296742 4.52604 0.0390082 4.50026 0.050348 4.47535C0.0523046 4.47117 0.0529566 4.46648 0.0550436 4.4623L2.142 0.288391C2.18534 0.201725 2.25195 0.12884 2.33438 0.0779034C2.41681 0.0269668 2.5118 -8.80648e-06 2.6087 1.2182e-08H21.3913C21.4882 -2.09203e-05 21.5832 0.0269349 21.6656 0.0778477C21.748 0.128761 21.8146 0.201619 21.858 0.288261L23.945 4.46217C23.947 4.46648 23.9477 4.47117 23.9497 4.47535C23.961 4.50023 23.9703 4.52596 23.9776 4.5523C23.9804 4.56235 23.9845 4.57187 23.9867 4.58204C23.9953 4.61931 23.9998 4.65741 24 4.69565V4.69565ZM1.36591 4.17391H22.6341L21.0689 1.04348H2.93113L1.36591 4.17391ZM22.9565 22.4348V5.21739H1.04348V22.4348C1.04362 22.5731 1.09863 22.7057 1.19644 22.8036C1.29426 22.9014 1.42689 22.9564 1.56522 22.9565H22.4348C22.5731 22.9564 22.7057 22.9014 22.8036 22.8036C22.9014 22.7057 22.9564 22.5731 22.9565 22.4348Z"
        fill="black"/>
</svg>
